<svg version="1.1" id="layer" xmlns="http://www.w3.org/2000/svg" x="0" y="0" width="576" height="144" style="enable-background:new 0 0 576 144" xml:space="preserve"><style>.st0,.st1{fill-rule:evenodd;clip-rule:evenodd;fill:#f16136}.st1{fill:#3e4195}.st2{fill:#22b353}</style><path class="st0" d="M93.5 33.1c-5.3-4.6-10.7-6-17.7-6-8.3 0-19.2 3.6-19.2 14.2 0 10.4 10.3 13.4 18.8 14.1 6.4.4 9 1.6 9 4.8 0 3.4-3.9 5.6-8.3 5.5-5.1-.1-12.5-2.8-15.6-6.3L55 67.5c6.6 6.9 13.8 8.2 21 8.2 13 0 19.6-6.9 19.6-15 0-12.1-10.8-14-19.5-14.6-5.9-.4-8.4-2-8.4-5 0-2.9 3-4.5 8.3-4.5 4.3 0 8.1 1.1 11.2 4l6.3-7.5zM108.2 16.8v11.7h-8.4v9.7h8.4v19.7c0 11.3 6.4 17 16.3 16.6 3.5-.1 6-.7 9.3-1.9l-3.2-9.6c-1.6.9-3.6 1.3-5.5 1.3-3.6 0-5.9-2.1-5.9-6.4V38.2H132v-9.7h-12.6v-13l-11.2 1.3zM161 37.5c17.7 0 17.7 27.6 0 27.6-7.5 0-13.4-5.2-13.4-13.8-.1-8.9 5.9-13.8 13.4-13.8m13.4-2.7c-2.6-4.5-8.4-7.4-14.5-7.4-13.2-.1-23.7 8.2-23.7 23.8 0 15.9 10 24.3 23.4 24.2 5.1-.1 12.2-2.7 14.8-8.1l.6 6.6h10.7V28.4h-10.8l-.5 6.4zM192.8 28.4v45.5H204v-24c0-8.4 5.5-11.5 11.3-11.5 3.6 0 5.9 1.1 8.2 3l5.1-9.8c-2.5-2.5-7-4.3-11.7-4.3-4.6 0-9.3.9-12.9 6.4l-.9-5.3h-10.3zM242.4 16.8v11.7H234v9.7h8.4v19.7c0 11.3 6.4 17 16.3 16.6 3.5-.1 6-.7 9.3-1.9l-3.2-9.6c-1.6.9-3.6 1.3-5.5 1.3-3.6 0-5.9-2.1-5.9-6.4V38.2h12.7v-9.7h-12.6v-13l-11.1 1.3zM274.6 28.4v23.9c0 14.1 8 22.4 18.8 22.4 6.3 0 10.7-2.2 15.5-6.8l.8 6h10.1V28.4h-11.1v23.2c0 7-4.7 12.8-11.6 12.8-7.2 0-10.9-5.3-10.9-12.2V28.4h-11.6zM337.4 92.9V68.6c3.3 5 10.4 6.4 15.2 6.4 14.6 0 22.9-10.6 22.9-23.8 0-13.3-9.3-23.8-23.3-23.8-5.2 0-11.2 2.2-14.8 7.3l-.8-6.2H326V93l11.4-.1zm14-28.8c-7.7 0-13-5.8-13-13 0-7.1 4.8-13 13-13s13 5.9 13 13c-.2 7.3-5.5 13-13 13M380.6 15.7c0 8.7 13.2 8.7 13.2 0 .2-8.8-13.2-8.8-13.2 0m12.3 58.2h-11.2V28.2h11.2v45.7zM444.9 73.9V50c0-14.3-8.5-22.4-19.3-22.4-5.8 0-10.4 2.3-15 6.8l-.8-6.1h-10.1v45.6h11.1V50.7c0-6.9 4.7-12.8 11.6-12.8 7.2 0 10.9 5.3 10.9 12.2v23.8h11.6zM488.7 9.4v25.2c-2.7-4.7-10.2-7.3-15-7.3-13.2 0-23.1 8.2-23.1 23.8 0 15 10.1 23.8 23.4 23.8 5.6 0 11.1-1.8 14.7-7.3l.8 6.2h10.6V9.3l-11.4.1zm-13.9 28.4c7.1 0 13.2 5.4 13.2 13.2 0 8.2-6 13.3-13.2 13.3-7.2 0-13-5.5-13-13.3.2-8.1 5.8-13.2 13-13.2"/><path class="st1" d="M508.3 15.7c0 8.7 13.2 8.7 13.2 0s-13.2-8.8-13.2 0M509.4 28.2h11.2v45.7h-11.2z"/><path class="st0" d="M551.3 37.5c17.7 0 17.7 27.6 0 27.6-7.5 0-13.4-5.2-13.4-13.8 0-8.9 6-13.8 13.4-13.8m13.6-2.7c-2.6-4.5-8.4-7.4-14.5-7.4-13.2-.1-23.7 8.2-23.7 23.8 0 15.9 10 24.3 23.4 24.2 5.1-.1 12.2-2.7 14.8-8.1l.6 6.6H576V28.4h-10.8l-.3 6.4z"/><path class="st2" d="M466.9 80.9h53.8v11h-53.8z"/><path class="st2" d="M466.8 81h10.9v53.9h-10.9z"/><path class="st2" d="M424.1 123.9h53.6v11h-53.6z"/><path d="m26.8 20.8-2.9 11.4h8.4l2.9-11.4h10.2l-2.8 11.5H48v8.8h-7.7L36.7 55h6v9h-8.1l-2.5 10.4H21.9L24.4 64H16l-2.5 10.4H3.3L5.8 64H0v-8.9h8.1l3.6-14H5.3v-8.7h8.4L16.5 21l10.3-.2zm-5.5 19.7-3.8 15.2h9.6l3.8-15.2h-9.6z" style="fill:#f16136"/></svg>