<svg xmlns="http://www.w3.org/2000/svg" id="handshake" width="129.886" height="80.135"><defs><style>.cls-1{fill:#f65e73}</style></defs><g id="Group_375" data-name="Group 375"><path id="Path_295" d="M64.968 161.068a6.62 6.62 0 0 0-5.225-1.23 6.633 6.633 0 0 0-7.452-5.484 6.7 6.7 0 0 0-1.264.3 6.627 6.627 0 0 0-8.9-4.266 6.638 6.638 0 0 0-10.927-2.646l-6.964-.463 4.27-34.679 7.649.52h.129a1.9 1.9 0 0 0 1.693-1.035l2.866-5.593a3.384 3.384 0 0 1 3.9-1.711L49 105.967a1.9 1.9 0 1 0 1.014-3.668l-4.256-1.177a7.2 7.2 0 0 0-8.3 3.642l-2.3 4.478-6.19-.421.147-1.191a6.965 6.965 0 0 0-6.055-7.755L8.4 98.072a1.9 1.9 0 0 0-.465 3.777l14.66 1.8a3.152 3.152 0 0 1 2.743 3.513l-5.03 40.898a3.157 3.157 0 0 1-3.513 2.743L2.134 149a1.9 1.9 0 0 0-.465 3.777l14.66 1.8a6.95 6.95 0 0 0 6.944-3.552l5.21.346a6.637 6.637 0 0 0 5.888 9.671 6.76 6.76 0 0 0 .922-.063l.059-.01c0 .02 0 .039.007.059a6.63 6.63 0 0 0 6.566 5.726 6.693 6.693 0 0 0 .977-.074 6.623 6.623 0 0 0 6.57 5.79 6.692 6.692 0 0 0 .974-.074c0 .021 0 .042.007.063a6.639 6.639 0 0 0 6.56 5.729 6.755 6.755 0 0 0 .922-.063 6.592 6.592 0 0 0 4.382-2.567l3.936-5.2a6.643 6.643 0 0 0-1.285-9.29zm-30.2-3.855a2.831 2.831 0 0 1-2.644-4.514l1.449-1.914a2.831 2.831 0 0 1 4.514 3.418l-1.45 1.914a2.814 2.814 0 0 1-1.865 1.096zm5.451 5.168a2.831 2.831 0 0 1-.547-3.966l1.449-1.914 1.28-1.69a2.831 2.831 0 0 1 4.513 3.418l-2.729 3.6a2.834 2.834 0 0 1-3.962.552zm7.551 5.719a2.831 2.831 0 0 1-.548-3.965l2.729-3.6.99-1.308a2.831 2.831 0 0 1 4.515 3.417l-3.721 4.913a2.834 2.834 0 0 1-3.965.543zm15.448-.029-3.936 5.2a2.831 2.831 0 1 1-4.513-3.418l3.72-4.912.214-.282a2.831 2.831 0 1 1 4.513 3.418z" class="cls-1" data-name="Path 295" transform="translate(.001 -98.057)"/><path id="Path_296" d="M248.3 150.655a1.9 1.9 0 0 0-2.125-1.655l-14.66 1.8a3.154 3.154 0 0 1-3.515-2.739l-.15-1.22-.035-.283-4.849-39.391a3.152 3.152 0 0 1 2.743-3.514l14.66-1.8a1.9 1.9 0 0 0-.465-3.777l-14.66 1.8a6.966 6.966 0 0 0-6.1 7.085l-3.7.455L204 100.975a9.085 9.085 0 0 0-5.314-1.135h-.011l-3.446.319a1.9 1.9 0 1 0 .351 3.789l3.455-.32a5.3 5.3 0 0 1 3.1.661L214 110.97a1.9 1.9 0 0 0 1.281.3l4.294-.528 3.149 25.582 1.089 8.847-6.849.006a1.9 1.9 0 0 0-1.242.463l-.53.412L198 131.234c3.929-1.13 7.675-3.862 11.177-8.163a1.9 1.9 0 1 0-2.951-2.4c-3.914 4.807-8.03 7.282-12.233 7.354-6.123.115-10.622-4.962-10.663-5.009a1.9 1.9 0 0 0-2.949.084l-5.111 6.652A9.9 9.9 0 0 1 163.851 133l-.546-.206a1.271 1.271 0 0 1-.65-1.827L176 108a5.329 5.329 0 0 1 4.109-2.624l7.9-.73a1.9 1.9 0 0 0-.351-3.789l-7.9.73a9.141 9.141 0 0 0-7.049 4.5l-13.34 22.96a5.076 5.076 0 0 0 2.6 7.3l.546.206a13.861 13.861 0 0 0 4.9.9 13.685 13.685 0 0 0 10.874-5.391l3.811-4.962a18.79 18.79 0 0 0 10.722 4.69l24.847 21.415a2.208 2.208 0 0 1 .232 3.113l-.968 1.123a3.386 3.386 0 0 1-4.766.35 1.9 1.9 0 0 0-.249-.179l-6.45-5.562a1.9 1.9 0 0 0-2.485 2.882l5.242 4.52-2.391 2.775a3.371 3.371 0 0 1-4.764.352l-.028-.022-5.993-5.167a1.9 1.9 0 0 0-2.485 2.882l4.58 3.949-2.405 2.793a3.383 3.383 0 0 1-2.959 1.151 1.9 1.9 0 0 0-.444 3.779 7.186 7.186 0 0 0 6.286-2.447l2.571-2.986a7.18 7.18 0 0 0 8.524-1.8l2.576-2.989a7.2 7.2 0 0 0 8.523-1.8l.97-1.125a6.013 6.013 0 0 0-.63-8.479l-1.562-1.346h5.708a6.952 6.952 0 0 0 7.683 5.6l14.66-1.8a1.9 1.9 0 0 0 1.655-2.117z" class="cls-1" data-name="Path 296" transform="translate(-118.424 -98.058)"/><path id="Path_297" d="M447.585 251.249a5.581 5.581 0 1 0 5.58 5.58 5.587 5.587 0 0 0-5.58-5.58zm0 7.356a1.775 1.775 0 1 1 1.775-1.776 1.778 1.778 0 0 1-1.775 1.776z" class="cls-1" data-name="Path 297" transform="translate(-329.875 -212.387)"/><path id="Path_298" d="M36.354 256.83a5.58 5.58 0 1 0-5.581 5.581 5.587 5.587 0 0 0 5.581-5.581zm-7.356 0a1.775 1.775 0 1 1 1.775 1.776A1.777 1.777 0 0 1 29 256.83z" class="cls-1" data-name="Path 298" transform="translate(-18.802 -212.387)"/></g></svg>