<svg xmlns="http://www.w3.org/2000/svg" id="hotel" width="124.689" height="124.633"><defs><style>.cls-1{fill:#5e7cf6}</style></defs><path id="Path_314" d="M1 61h124.689v4.022H1z" class="cls-1" data-name="Path 314" transform="translate(-1 59.611)"/><path id="Path_315" d="M47.123 25.1a2.027 2.027 0 0 1-.9-.211l-7.145-3.569-7.146 3.572a2.01 2.01 0 0 1-2.85-2.285l1.667-6.669L25.9 12.7a2.01 2.01 0 0 1 .627-3.624l7.29-1.822L37.4 1.868a2.086 2.086 0 0 1 3.347 0l3.59 5.388 7.29 1.822a2.01 2.01 0 0 1 .627 3.624L47.4 15.938l1.667 6.669a2.01 2.01 0 0 1-1.947 2.5zm-8.045-8.04a2.014 2.014 0 0 1 .9.211l4.135 2.065-.951-3.8a2.007 2.007 0 0 1 .838-2.16l2.25-1.5-3.632-.909a2.011 2.011 0 0 1-1.187-.835l-2.353-3.523-2.349 3.523a2.011 2.011 0 0 1-1.187.835l-3.634.909 2.25 1.5a2.007 2.007 0 0 1 .835 2.16l-.951 3.8 4.135-2.065a2 2 0 0 1 .9-.213z" class="cls-1" data-name="Path 315" transform="translate(23.266 -1.028)"/><path id="Path_316" d="M62.222 24.056H58.2v-6.034H26.022v6.033H22v-8.044A2.009 2.009 0 0 1 24.011 14h36.2a2.009 2.009 0 0 1 2.011 2.011z" class="cls-1" data-name="Path 316" transform="translate(20.234 12.088)"/><path id="Path_317" d="M12 18h80.445v4.022H12z" class="cls-1" data-name="Path 317" transform="translate(10.122 16.132)"/><path id="Path_318" d="M14 19h4.022v86.478H14z" class="cls-1" data-name="Path 318" transform="translate(12.145 17.143)"/><path id="Path_319" d="M48 19h4.022v86.478H48z" class="cls-1" data-name="Path 319" transform="translate(46.523 17.143)"/><path id="Path_320" d="M18 49h56.311v4.022H18z" class="cls-1" data-name="Path 320" transform="translate(16.189 47.477)"/><path id="Path_321" d="M20 50h4.022v24.134H20z" class="cls-1" data-name="Path 321" transform="translate(18.211 48.488)"/><path id="Path_322" d="M42 50h4.022v24.134H42z" class="cls-1" data-name="Path 322" transform="translate(40.456 48.488)"/><path id="Path_323" d="M38.078 71.1h-4.022V57.022h-6.034V71.1H24V55.011A2.009 2.009 0 0 1 26.011 53h10.056a2.009 2.009 0 0 1 2.011 2.011z" class="cls-1" data-name="Path 323" transform="translate(22.256 51.522)"/><path id="Path_324" d="M47.078 71.1h-4.022V57.022h-6.034V71.1H33V55.011A2.009 2.009 0 0 1 35.011 53h10.056a2.009 2.009 0 0 1 2.011 2.011z" class="cls-1" data-name="Path 324" transform="translate(31.356 51.522)"/><path id="Path_325" d="M28.056 34.067h-8.045A2.009 2.009 0 0 1 18 32.056v-8.045A2.009 2.009 0 0 1 20.011 22h8.044a2.009 2.009 0 0 1 2.011 2.011v8.045a2.009 2.009 0 0 1-2.01 2.011zm-6.033-4.022h4.022v-4.023h-4.023z" class="cls-1" data-name="Path 325" transform="translate(16.189 20.177)"/><path id="Path_326" d="M39.056 34.067h-8.045A2.009 2.009 0 0 1 29 32.056v-8.045A2.009 2.009 0 0 1 31.011 22h8.044a2.009 2.009 0 0 1 2.011 2.011v8.045a2.009 2.009 0 0 1-2.01 2.011zm-6.033-4.022h4.022v-4.023h-4.023z" class="cls-1" data-name="Path 326" transform="translate(27.311 20.177)"/><path id="Path_327" d="M50.056 34.067h-8.045A2.009 2.009 0 0 1 40 32.056v-8.045A2.009 2.009 0 0 1 42.011 22h8.044a2.009 2.009 0 0 1 2.011 2.011v8.045a2.009 2.009 0 0 1-2.01 2.011zm-6.033-4.022h4.022v-4.023h-4.023z" class="cls-1" data-name="Path 327" transform="translate(38.434 20.177)"/><path id="Path_328" d="M28.056 42.067h-8.045A2.009 2.009 0 0 1 18 40.056v-8.045A2.009 2.009 0 0 1 20.011 30h8.044a2.009 2.009 0 0 1 2.011 2.011v8.044a2.009 2.009 0 0 1-2.01 2.012zm-6.033-4.022h4.022v-4.023h-4.023z" class="cls-1" data-name="Path 328" transform="translate(16.189 28.266)"/><path id="Path_329" d="M39.056 42.067h-8.045A2.009 2.009 0 0 1 29 40.056v-8.045A2.009 2.009 0 0 1 31.011 30h8.044a2.009 2.009 0 0 1 2.011 2.011v8.044a2.009 2.009 0 0 1-2.01 2.012zm-6.033-4.022h4.022v-4.023h-4.023z" class="cls-1" data-name="Path 329" transform="translate(27.311 28.266)"/><path id="Path_330" d="M50.056 42.067h-8.045A2.009 2.009 0 0 1 40 40.056v-8.045A2.009 2.009 0 0 1 42.011 30h8.044a2.009 2.009 0 0 1 2.011 2.011v8.044a2.009 2.009 0 0 1-2.01 2.012zm-6.033-4.022h4.022v-4.023h-4.023z" class="cls-1" data-name="Path 330" transform="translate(38.434 28.266)"/><path id="Path_331" d="M28.056 50.067h-8.045A2.009 2.009 0 0 1 18 48.056v-8.045A2.009 2.009 0 0 1 20.011 38h8.044a2.009 2.009 0 0 1 2.011 2.011v8.045a2.009 2.009 0 0 1-2.01 2.011zm-6.033-4.022h4.022v-4.023h-4.023z" class="cls-1" data-name="Path 331" transform="translate(16.189 36.355)"/><path id="Path_332" d="M39.056 50.067h-8.045A2.009 2.009 0 0 1 29 48.056v-8.045A2.009 2.009 0 0 1 31.011 38h8.044a2.009 2.009 0 0 1 2.011 2.011v8.045a2.009 2.009 0 0 1-2.01 2.011zm-6.033-4.022h4.022v-4.023h-4.023z" class="cls-1" data-name="Path 332" transform="translate(27.311 36.355)"/><path id="Path_333" d="M50.056 50.067h-8.045A2.009 2.009 0 0 1 40 48.056v-8.045A2.009 2.009 0 0 1 42.011 38h8.044a2.009 2.009 0 0 1 2.011 2.011v8.045a2.009 2.009 0 0 1-2.01 2.011zm-6.033-4.022h4.022v-4.023h-4.023z" class="cls-1" data-name="Path 333" transform="translate(38.434 36.355)"/><path id="Path_334" d="M63.067 68.134a12.067 12.067 0 1 1 12.066-12.067 12.079 12.079 0 0 1-12.066 12.067zm0-20.111a8.045 8.045 0 1 0 8.044 8.045 8.053 8.053 0 0 0-8.044-8.046z" class="cls-1" data-name="Path 334" transform="translate(49.556 42.422)"/><path id="Path_335" d="M60.022 75.86H56V53.737a2 2 0 0 1 .589-1.422l4.022-4.022 2.844 2.844-3.433 3.433z" class="cls-1" data-name="Path 335" transform="translate(54.612 46.762)"/><path id="Path_336" d="M0 0h4.022v5.687H0z" class="cls-1" data-name="Path 336" transform="rotate(-45 171.757 -80.399)"/><path id="Path_337" d="M13.067 68.134a12.067 12.067 0 1 1 12.066-12.067 12.079 12.079 0 0 1-12.066 12.067zm0-20.111a8.045 8.045 0 1 0 8.044 8.045 8.053 8.053 0 0 0-8.044-8.046z" class="cls-1" data-name="Path 337" transform="translate(-1 42.422)"/><path id="Path_338" d="M10.022 75.86H6V53.737a2 2 0 0 1 .589-1.422l4.022-4.022 2.844 2.844-3.433 3.433z" class="cls-1" data-name="Path 338" transform="translate(4.056 46.762)"/><path id="Path_339" d="M0 0h4.022v5.687H0z" class="cls-1" data-name="Path 339" transform="rotate(-45 121.47 40.965)"/></svg>