<svg xmlns="http://www.w3.org/2000/svg" width="50.431" height="50.435"><defs><style>.cls-3{fill:#f7772d}.cls-2{fill:#fff}</style></defs><g id="Page-1" transform="translate(0 .004)"><g id="_015---Email" data-name="015---Email" transform="translate(0 -.004)"><path id="Path_3706" data-name="Path 3706" d="m26.661 37.248-2.972-.848L9.627 24.618 10.018 7.5l1.563-.521h30.856l1.042 1.042V25.2L28.831 37.248Z" transform="translate(-1.535 -1.95)" style="opacity:.4;fill:#f7772d"/><path id="Shape" class="cls-2" d="M29.094 31.315a18.586 18.586 0 0 1-5.551-.875 8.4 8.4 0 0 1-5.577-6.357c-.633-3.048.52-6.271 3.163-8.842q.425-.414.884-.794a10.713 10.713 0 0 1 9.754-2.1 8.167 8.167 0 0 1 5.679 7.511 7.738 7.738 0 0 1-1.809 5.468 4.251 4.251 0 0 1-4.157 1.527 2.4 2.4 0 0 1-1.544-1.072A2.282 2.282 0 0 1 29.715 24c.735-2.778 1.482-7 1.49-7.044a.841.841 0 1 1 1.656.292c-.031.176-.767 4.335-1.52 7.181a.607.607 0 0 0 .037.478.748.748 0 0 0 .487.3 2.61 2.61 0 0 0 2.509-1 6.05 6.05 0 0 0 1.4-4.276 6.5 6.5 0 0 0-4.5-5.993 8.995 8.995 0 0 0-8.182 1.795c-.27.224-.533.459-.785.7-1.307 1.271-3.393 3.908-2.69 7.3a6.806 6.806 0 0 0 4.442 5.1C28 30.1 33.66 30.247 36.645 26.536a.841.841 0 0 1 1.31 1.053c-2.207 2.744-5.566 3.726-8.861 3.726Z" transform="translate(-2.838 -2.742)"/><path id="Shape-2" data-name="Shape" class="cls-2" d="M27.074 27.757a3.865 3.865 0 0 1-2.454-.825c-1.613-1.291-1.658-3.534-1.205-5.062a7.7 7.7 0 0 1 .61-1.467 6.891 6.891 0 0 1 2.887-3 3.974 3.974 0 0 1 4.676.753 6.291 6.291 0 0 1 1.34 2.308.841.841 0 0 1-1.583.564 4.689 4.689 0 0 0-.972-1.711 2.275 2.275 0 0 0-2.718-.406 5.269 5.269 0 0 0-2.156 2.3 6.018 6.018 0 0 0-.474 1.139 3.131 3.131 0 0 0 .646 3.269 3.006 3.006 0 0 0 3.583-.35 9.373 9.373 0 0 0 1.777-2.161.841.841 0 1 1 1.428.892 11.034 11.034 0 0 1-2.1 2.544 5.164 5.164 0 0 1-3.282 1.217Z" transform="translate(-3.695 -3.542)"/><path id="Shape-3" data-name="Shape" class="cls-3" d="M47.909 54.461H2.522A2.524 2.524 0 0 1 0 51.94v-31.1a.841.841 0 0 1 1.378-.646L22 37.334a5.047 5.047 0 0 0 6.429 0l20.624-17.14a.841.841 0 0 1 1.378.646v31.1a2.524 2.524 0 0 1-2.522 2.522ZM1.681 22.632V51.94a.842.842 0 0 0 .841.841h45.387a.841.841 0 0 0 .841-.841V22.632l-19.246 16a6.732 6.732 0 0 1-8.576 0Z" transform="translate(0 -4.027)"/><path id="Shape-4" data-name="Shape" class="cls-3" d="M.841 20.664a.841.841 0 0 1-.487-1.526l7.565-5.362a.841.841 0 0 1 .972 1.372L1.326 20.51a.835.835 0 0 1-.485.155Z" transform="translate(0 -3.01)"/><path id="Shape-5" data-name="Shape" class="cls-3" d="M57.406 20.664a.835.835 0 0 1-.485-.155l-7.565-5.362a.841.841 0 0 1 .972-1.372l7.565 5.362a.841.841 0 0 1-.487 1.526Z" transform="translate(-7.816 -3.01)"/><path id="Shape-6" data-name="Shape" class="cls-3" d="M36.133 6.883a.838.838 0 0 1-.486-.155l-4.018-2.849a5.052 5.052 0 0 0-6.474-.039l-4.068 2.888a.841.841 0 1 1-.973-1.372l4.018-2.849a6.693 6.693 0 0 1 8.52.038l3.968 2.811a.841.841 0 0 1-.487 1.527Z" transform="translate(-3.151 -.996)"/><path id="Shape-7" data-name="Shape" class="cls-3" d="M1.49 57.116a.841.841 0 0 1-.538-1.487l19.181-15.936a.841.841 0 1 1 1.074 1.293L2.027 56.922a.838.838 0 0 1-.537.194Z" transform="translate(-.104 -7.135)"/><path id="Shape-8" data-name="Shape" class="cls-3" d="M54.549 57.116a.836.836 0 0 1-.536-.194L34.832 40.986a.841.841 0 1 1 1.074-1.293l19.18 15.936a.841.841 0 0 1-.538 1.487Z" transform="translate(-5.506 -7.135)"/><path id="Shape-9" data-name="Shape" class="cls-3" d="M43.461 25.735a.841.841 0 0 1-.841-.841V7.687c0 .018-.036-.006-.092-.007H10.773a.136.136 0 0 0-.1.036l.008 17.178a.841.841 0 1 1-1.681 0V7.681A1.731 1.731 0 0 1 10.773 6h31.755A1.731 1.731 0 0 1 44.3 7.681v17.214a.841.841 0 0 1-.839.84Z" transform="translate(-1.435 -1.794)"/></g></g></svg>