<svg xmlns="http://www.w3.org/2000/svg" width="89.698" height="89.698"><defs><style>.cls-1{fill:#5e7cf6}</style></defs><g id="payment" transform="translate(-1 -1)"><path id="Path_362" d="M18 5h2.893v2.893H18z" class="cls-1" data-name="Path 362" transform="translate(7.595 1.787)"/><path id="Path_363" d="M14 5h2.893v2.893H14z" class="cls-1" data-name="Path 363" transform="translate(5.808 1.787)"/><path id="Path_364" d="M22 5h2.893v2.893H22z" class="cls-1" data-name="Path 364" transform="translate(9.382 1.787)"/><path id="Path_365" d="M15 57h11.574v2.893H15z" class="cls-1" data-name="Path 365" transform="translate(6.254 25.018)"/><path id="Path_366" d="M44.574 33a5.714 5.714 0 0 0-2.893.79 5.714 5.714 0 0 0-2.894-.79 5.787 5.787 0 0 0 0 11.574 5.714 5.714 0 0 0 2.894-.79 5.714 5.714 0 0 0 2.893.79 5.787 5.787 0 0 0 0-11.574zm0 8.68a2.856 2.856 0 0 1-1.926-.754l-.968-.872-.968.872a2.856 2.856 0 0 1-1.926.754 2.893 2.893 0 0 1 0-5.787 2.856 2.856 0 0 1 1.926.754l.968.872.968-.872a2.856 2.856 0 0 1 1.926-.754 2.893 2.893 0 0 1 0 5.787z" class="cls-1" data-name="Path 366" transform="translate(14.296 14.296)"/><path id="Path_367" d="M19 39h2.893v2.893H19z" class="cls-1" data-name="Path 367" transform="translate(8.041 16.976)"/><path id="Path_368" d="M23 39h2.893v2.893H23z" class="cls-1" data-name="Path 368" transform="translate(9.828 16.976)"/><path id="Path_369" d="M27 39h2.893v2.893H27z" class="cls-1" data-name="Path 369" transform="translate(11.615 16.976)"/><path id="Path_370" d="M19 35h14.467v2.893H19z" class="cls-1" data-name="Path 370" transform="translate(8.041 15.189)"/><path id="Path_371" d="M9 45h2.893v2.893H9z" class="cls-1" data-name="Path 371" transform="translate(3.574 19.657)"/><path id="Path_372" d="M9 41h2.893v2.893H9z" class="cls-1" data-name="Path 372" transform="translate(3.574 17.87)"/><path id="Path_373" d="M9 37h2.893v2.893H9z" class="cls-1" data-name="Path 373" transform="translate(3.574 16.083)"/><path id="Path_374" d="M82.018 29.935v2.893h-3.742a10.06 10.06 0 0 0-7.088-2.893h-.745v-1.447a4.346 4.346 0 0 0-4.34-4.34h-13.02V8.234A7.242 7.242 0 0 0 45.849 1H8.234A7.242 7.242 0 0 0 1 8.234v75.231A7.242 7.242 0 0 0 8.234 90.7h37.615a7.242 7.242 0 0 0 7.234-7.234V64.657H66.1a4.334 4.334 0 0 0 4.074-2.893h1.111a10.187 10.187 0 0 0 4.53-1.069l3.647-1.824h2.552v2.893H90.7V29.935zM67.55 28.488v1.447H55.976a2.9 2.9 0 0 0-2.893 2.893H21.254v-4.34a1.449 1.449 0 0 1 1.446-1.447h43.4a1.449 1.449 0 0 1 1.45 1.447zm0 13.021h-46.3v-5.787h32.637a5.768 5.768 0 0 0 4.983 2.893h8.68zM44.4 24.148H22.7a4.346 4.346 0 0 0-4.34 4.34v31.829a4.346 4.346 0 0 0 4.34 4.34h21.7v5.787H9.68v-49.19H44.4zM8.234 3.893h37.615a4.346 4.346 0 0 1 4.34 4.34v4.34H3.893V8.234a4.346 4.346 0 0 1 4.341-4.341zM45.849 87.8H8.234a4.346 4.346 0 0 1-4.34-4.34v-4.34h46.3v4.34a4.346 4.346 0 0 1-4.345 4.34zm4.34-11.574H3.893V15.467h46.3v8.68H47.3v-2.893a2.9 2.9 0 0 0-2.9-2.893H9.68a2.9 2.9 0 0 0-2.893 2.893v49.19a2.9 2.9 0 0 0 2.893 2.893H44.4a2.9 2.9 0 0 0 2.9-2.893v-5.787h2.893zM66.1 61.763H22.7a1.448 1.448 0 0 1-1.447-1.447V44.4h46.3v15.917a1.448 1.448 0 0 1-1.453 1.446zm12.679-5.787-4.259 2.13a7.281 7.281 0 0 1-3.236.764h-.843V40.156a10.065 10.065 0 0 0 5.042 1.353h.745v-2.894h-.745A7.192 7.192 0 0 1 70.37 36.5l-.774-.775H58.87a2.9 2.9 0 0 1-2.893-2.893h15.212a7.192 7.192 0 0 1 5.111 2.114l.774.775h4.939v20.255zM87.8 58.87h-2.889V32.828H87.8z" class="cls-1" data-name="Path 374"/></g></svg>