<svg version="1.1" id="Layer_1" xmlns="http://www.w3.org/2000/svg" x="0" y="0" width="500" height="500" style="enable-background:new 0 0 500 500" xml:space="preserve"><style>.st0{fill:#f65e73}</style><path class="st0" d="M24.9 486.4v-12.9C206.7 333 126.7 193.8 126.7 193.8s-31.4 12.5-59.4 3.5c0 0-86-28-63-119.5 0 0 38-106.5 144.4-45.1 0 0 63.7 40.6 72.2 131.5 23.4 250.5-196 322.2-196 322.2zM301.9 486.4v-12.9C483.7 333 403.7 193.8 403.7 193.8s-31.4 12.5-59.4 3.5c0 0-86-28-63-119.5 0 0 38-106.5 144.4-45.1 0 0 63.7 40.6 72.2 131.5 23.4 250.5-196 322.2-196 322.2z"/></svg>