<svg xmlns="http://www.w3.org/2000/svg" width="106.062" height="91.147"><path d="M104.32 43.123a6.167 6.167 0 0 0-2.931-1.708 6.168 6.168 0 0 0 .94-3.523 6.325 6.325 0 0 0-6.322-5.99H83.7l-.01-18.437a7.25 7.25 0 1 0-14.5 0v4.879a8.805 8.805 0 0 1-.752 3.563A17.108 17.108 0 0 1 52 4.833V2.589A2.592 2.592 0 0 0 49.406 0H22.683a2.592 2.592 0 0 0-2.589 2.589V4.35A17.109 17.109 0 0 1 3 21.44h-.41A2.592 2.592 0 0 0 0 24.03V55.1a36.049 36.049 0 0 0 68.772 15.125H90.43a5.349 5.349 0 0 0 3.792-1.6 5.088 5.088 0 0 0 1.045-5.653h.74a6.325 6.325 0 0 0 6.322-5.99 6.164 6.164 0 0 0-.956-3.548 6.3 6.3 0 0 0 4.685-5.774 6.168 6.168 0 0 0-1.738-4.54zM36.045 88.04A32.975 32.975 0 0 1 3.107 55.1V24.548A20.221 20.221 0 0 0 23.2 4.35V3.107h25.688v1.726a20.227 20.227 0 0 0 17.436 20.008 8.876 8.876 0 0 1-1.212.931l-8.488 5.4a4.648 4.648 0 0 1-2.5.729h-1.913a4.669 4.669 0 0 0-4.462-3.314h-8.7a4.669 4.669 0 0 0-4.394 3.107h-7.621a4.044 4.044 0 0 0-4.039 4.039v26.724a4.044 4.044 0 0 0 4.039 4.043h7.354v15.281A26.653 26.653 0 0 1 9.322 55.206V29.463A21.229 21.229 0 0 0 28.948 9.218h5.439V22.89a1.554 1.554 0 1 0 3.107 0V7.665a1.554 1.554 0 0 0-1.554-1.554h-8.527a1.554 1.554 0 0 0-1.554 1.554v.656A18.111 18.111 0 0 1 7.768 26.412a1.554 1.554 0 0 0-1.554 1.554v27.24a29.76 29.76 0 0 0 29.727 29.727 1.554 1.554 0 0 0 1.554-1.554V69.444a4.239 4.239 0 0 0 1.139.159h9.115a4.655 4.655 0 0 0 3.728-1.867l1.657.939a11.931 11.931 0 0 0 5.874 1.55h6.305A32.917 32.917 0 0 1 36.045 88.04zm-1.657-24.651h-7.354a.933.933 0 0 1-.932-.932V35.734a.933.933 0 0 1 .932-.932h7.354zm65.348-12.844h-12.11a1.554 1.554 0 0 0 0 3.107h8.493a3.106 3.106 0 0 1 3.1 3.222 3.191 3.191 0 0 1-3.217 2.992h-8.376a1.554 1.554 0 0 0 0 3.107h2.893a2.082 2.082 0 0 1 2.081 2.033 2.007 2.007 0 0 1-.592 1.445 2.223 2.223 0 0 1-1.574.666H59.008a8.817 8.817 0 0 1-4.341-1.145l-2.257-1.279v-3.514a1.554 1.554 0 0 0-3.107 0v3.764a1.555 1.555 0 0 1-1.554 1.557h-9.115a1.141 1.141 0 0 1-1.139-1.139V33.248a1.555 1.555 0 0 1 1.554-1.554h8.7a1.555 1.555 0 0 1 1.551 1.554v20.681a1.554 1.554 0 1 0 3.107 0v-18.92h1.712a7.752 7.752 0 0 0 4.17-1.215l8.488-5.4a11.854 11.854 0 0 0 5.523-10.05v-4.879a4.143 4.143 0 1 1 8.286 0l.012 18.955a2.593 2.593 0 0 0 2.589 2.588h12.82A3.191 3.191 0 0 1 99.224 38a3.106 3.106 0 0 1-3.1 3.222h-8.498a1.554 1.554 0 1 0 0 3.107h12.222a3.106 3.106 0 0 1 3.1 3.222 3.191 3.191 0 0 1-3.217 2.992zm0 0" data-name="Path 403" style="fill:#f65e73"/><path d="M66.992 23.611 57.611 20l-4.906-6.639-1.877-7.934v-3.9H21.82v5.055l-2.74 6.783-4.475 4.907s-.865 2.454-6.494 4.041-6.783 1.3-6.783 1.3v31.6l2.311 11.4 5.482 9.817 11.113 9.236 13.854 4.041 10.969-1.443 10.678-5.051s10.68-7.937 10.68-10.968-1.443-3.319-1.443-3.319l-11.4-1.587-2.742-.722-5.771 2.309-8.659-1.588v15.874L26.584 82.2 11.863 70.946 8.111 56.514V28.95l5.629-1.876 6.494-3.463 5.2-6.494 2.164-7.36V7.88h8.8v23.956l4.041-2.165s7.217-1.01 9.236.866a14.33 14.33 0 0 0 4.617 2.742l8.082-3.608 6.494-5.051z" data-name="Path 950" style="opacity:.4;fill:#f65e73"/></svg>