<svg xmlns="http://www.w3.org/2000/svg" id="Page-1" width="72.641" height="90.8"><defs><style>.cls-4{fill:#f9f9f9}</style></defs><g id="_033---Insurance" data-name="033---Insurance"><path id="Path_858" d="M2.625 16.582 36.189 3.024l33.567 14.611.922 38.565L64.1 69.234 36.189 88.847 13.154 73.578 1.967 58.046z" data-name="Path 858" style="opacity:.2;fill:#f7772d"/><path id="Path_859" d="M11.049 23.954v32.38l11.187 11.189 14.348 9.346L58.83 60.81l3.16-17.51-1.713-21.716L35.926 12.5z" data-name="Path 859" style="opacity:.5;fill:#f7772d"/><path id="Shape" d="M50.32 90.8a4.152 4.152 0 0 1-2.436-.79L24.351 73.038A25 25 0 0 1 14 52.816V17.174a2.27 2.27 0 0 1 1.362-2.074L49.412.19a2.27 2.27 0 0 1 1.816 0L85.279 15.1a2.27 2.27 0 0 1 1.362 2.079v35.64A25 25 0 0 1 76.29 73.035L52.756 90.013a4.167 4.167 0 0 1-2.436.787zM18.54 18.659v34.157a20.451 20.451 0 0 0 8.467 16.539L50.32 86.17l23.314-16.814a20.451 20.451 0 0 0 8.466-16.54V18.659L50.32 4.748z" transform="translate(-14 -.001)" style="fill:#f7772d"/><path id="Shape-2" d="M45.24 74.5a2.269 2.269 0 0 1-1.328-.429L24.583 60.129A15.89 15.89 0 0 1 18 47.271v-29.7a2.27 2.27 0 0 1 1.362-2.079l24.97-10.936a2.27 2.27 0 0 1 1.816 0l24.97 10.932a2.27 2.27 0 0 1 1.362 2.079v29.7a15.89 15.89 0 0 1-6.58 12.862L46.568 74.071a2.269 2.269 0 0 1-1.328.429zm-18-18.054 18 12.985 18-12.985a11.351 11.351 0 0 0 4.7-9.175V19.05l-22.7-9.936-22.7 9.936v28.221a11.351 11.351 0 0 0 4.699 9.176z" class="cls-4" data-name="Shape" transform="translate(-8.92 5.544)"/><path id="Shape-3" d="M34.35 43.781a2.27 2.27 0 0 1-1.362-.454l-9.08-6.81a2.27 2.27 0 1 1 2.724-3.632l7.16 5.371 16.83-25.246a2.27 2.27 0 1 1 3.778 2.52L36.24 42.77a2.27 2.27 0 0 1-1.505.978 2.442 2.442 0 0 1-.385.033z" class="cls-4" data-name="Shape" transform="translate(-2.57 15.239)"/></g></svg>