<svg xmlns="http://www.w3.org/2000/svg" id="sunset" width="127.627" height="127.633"><defs><style>.cls-1{fill:#01b46c}</style></defs><g id="Group_377" data-name="Group 377"><g id="filled_outline_26_"><path id="Rectangle_228" d="M0 0h4.254v4.254H0z" class="cls-1" data-name="Rectangle 228" transform="translate(25.527 114.871)"/><path id="Rectangle_229" d="M0 0h4.254v4.254H0z" class="cls-1" data-name="Rectangle 229" transform="translate(12.764 119.125)"/><path id="Rectangle_230" d="M0 0h24.31v4.254H0z" class="cls-1" data-name="Rectangle 230" transform="translate(81.439 123.379)"/><path id="Rectangle_231" d="M0 0h42.542v4.254H0z" class="cls-1" data-name="Rectangle 231" transform="translate(72.322 114.871)"/><path id="Path_350" d="M345.2 306.2a21.271 21.271 0 1 0 21.271-21.271A21.27 21.27 0 0 0 345.2 306.2zm21.271-17.017A17.017 17.017 0 1 1 349.45 306.2a17.018 17.018 0 0 1 17.017-17.015z" class="cls-1" data-name="Path 350" transform="translate(-272.874 -225.364)"/><path id="Rectangle_232" d="M0 0h24.31v4.254H0z" class="cls-1" data-name="Rectangle 232" transform="translate(81.439 123.379)"/><path id="Rectangle_233" d="M0 0h42.542v4.254H0z" class="cls-1" data-name="Rectangle 233" transform="translate(72.322 114.871)"/><path id="Rectangle_234" d="M0 0h4.254v4.254H0z" class="cls-1" data-name="Rectangle 234" transform="translate(25.527 114.871)"/><path id="Rectangle_235" d="M0 0h4.254v4.254H0z" class="cls-1" data-name="Rectangle 235" transform="translate(12.764 119.125)"/><path id="Path_351" d="M25.739 103.521A161.115 161.115 0 0 0 46.2 40.559l19.786 19.665a2.126 2.126 0 0 0 1.489.619 2.1 2.1 0 0 0 .345-.028 2.127 2.127 0 0 0 1.559-1.149 20.766 20.766 0 0 0-3.9-24l-1.74-1.74H78.7a2.129 2.129 0 0 0 2.133-2.126 2.1 2.1 0 0 0-.111-.677A20.767 20.767 0 0 0 61 16.91h-2.769L68.853 6.226a2.127 2.127 0 0 0-.006-3.008 2.16 2.16 0 0 0-.551-.4 20.775 20.775 0 0 0-24.013 3.899l-2.031 2.031a20.877 20.877 0 0 0-1.844 2.127 20.241 20.241 0 0 0-1.827-2.127l-2.032-2.031a20.763 20.763 0 0 0-24-3.895 2.128 2.128 0 0 0-.557 3.4L22.63 16.91h-2.793A20.766 20.766 0 0 0 .11 31.126a2.129 2.129 0 0 0 2.019 2.8h14.947l-1.74 1.74a20.766 20.766 0 0 0-3.9 24A2.126 2.126 0 0 0 13 60.816a2.1 2.1 0 0 0 .345.028 2.13 2.13 0 0 0 1.5-.619l18.418-18.313a115.289 115.289 0 0 1-22.238 56.215 79.392 79.392 0 0 0-8.683-1.77l-1.329-.134-.426 4.235 1.24.121c2.127.3 4.241.734 6.343 1.221-.426.534-.851 1.076-1.291 1.6l3.263 2.729a119.752 119.752 0 0 0 27.826-68.9l2.448-2.429 1.834 1.823a155.55 155.55 0 0 1-26.974 75.512l3.484 2.438c1.672-2.387 3.267-4.865 4.814-7.389a75.467 75.467 0 0 1 25.738 20.165l3.291-2.695a79.47 79.47 0 0 0-14.126-13.415h89.15v-4.254H32.174a76.97 76.97 0 0 0-6.435-3.464zm40.955-48.6L44.219 32.58a16.4 16.4 0 0 1 16.238 4.063l2.031 2.031a16.517 16.517 0 0 1 4.206 16.251zm8.763-25.253H57.845A20.747 20.747 0 0 0 44.67 28.1a16.5 16.5 0 0 1 13.445-6.937h2.872a16.519 16.519 0 0 1 14.471 8.51zm-30.2-17.916 2.031-2.031a16.527 16.527 0 0 1 16.256-4.202L50.935 18.2a20.747 20.747 0 0 0-10.042 7.881 16.1 16.1 0 0 1 4.367-14.325h-.006zM33.535 9.725l2.031 2.031a16.168 16.168 0 0 1 2.446 3.222 20.213 20.213 0 0 0-1.625 7.07A20.733 20.733 0 0 0 29.9 18.2L17.289 5.519a16.52 16.52 0 0 1 16.253 4.206h-.006zm-13.7 11.44H22.7A16.506 16.506 0 0 1 36.162 28.1a20.757 20.757 0 0 0-13.169 1.574H5.375a16.517 16.517 0 0 1 14.462-8.508zm-5.697 33.76a16.517 16.517 0 0 1 4.205-16.251l2.031-2.031A16.256 16.256 0 0 1 31.908 31.9a16.753 16.753 0 0 1 4.714.677z" class="cls-1" data-name="Path 351" transform="translate(0 -.619)"/></g></g></svg>