<svg xmlns="http://www.w3.org/2000/svg" width="60" height="60.01"><defs><style>.cls-1,.cls-3{fill:#01b46c}.cls-1{opacity:.4}</style></defs><g id="Page-1" transform="translate(0 0)"><g id="_021---Travel-Guide" data-name="021---Travel-Guide"><circle id="Ellipse_102" data-name="Ellipse 102" class="cls-1" cx="10" cy="10" r="10" transform="translate(29 27)"/><path id="Path_3684" data-name="Path 3684" class="cls-1" d="M21.385 21.476 19.23 16.3l-3.254-3.529L17.215 6.9l4.765-1.831 4.813 2.108 1.236 5.591-3.207 3.532-2.842 5.955Z"/><circle id="Ellipse_101" data-name="Ellipse 101" cx="2" cy="2" r="2" transform="translate(20 9)" style="fill:#fff"/><path id="Shape" class="cls-3" d="M5 60h34a3 3 0 0 0 3-3v-5.18A3 3 0 0 0 44 49v-2.21a12.11 12.11 0 0 0 1.5-.93l2.5 2.75a3 3 0 0 0 .38 3.44L54.74 59a3.01 3.01 0 1 0 4.5-4l-6.35-6.93a3 3 0 0 0-2.06-1 2.94 2.94 0 0 0-1.32.22L47 44.53a11 11 0 0 0-3-17.32V3a3 3 0 0 0-3-3H5a5 5 0 0 0-5 5v50a5 5 0 0 0 5 5Zm45.69-10.94a1 1 0 0 1 .71.36l6.35 6.92a1 1 0 1 1-1.52 1.3l-6.36-6.93a1.011 1.011 0 0 1 .79-1.65ZM48 37a9 9 0 1 1-9-9 9 9 0 0 1 9 9Zm-35-3.62-6 2.24v-14l6-2.26Zm2-14 5.17 1.94.24.59a1.68 1.68 0 0 0 .59.77v13l-6-2.25ZM23.78 16 22 20.5 20.22 16a1 1 0 0 0-.48-.52 5 5 0 1 1 4.52 0 1 1 0 0 0-.48.52ZM23 22.67a1.61 1.61 0 0 0 .59-.76l.24-.6L29 19.37v13.07a11.2 11.2 0 0 0-.43 1.09L23 35.63Zm14 3.52a10.93 10.93 0 0 0-6 3.28v-10.1l6 2.25ZM5 2h36a1 1 0 0 1 1 1v23.43a10.66 10.66 0 0 0-3-.43v-4.38a2 2 0 0 0-1.3-1.87l-7-2.63a2 2 0 0 0-1.38 0l-4.5 1.68.69-1.75a7 7 0 1 0-7 0l.69 1.75-4.5-1.68a2 2 0 0 0-1.38 0l-7 2.64A2 2 0 0 0 5 21.62v14a2.007 2.007 0 0 0 2.7 1.88l6.3-2.36 7.32 2.74A2 2 0 0 0 22 38a2.16 2.16 0 0 0 .71-.12l5.36-2A10.88 10.88 0 0 0 28 37a11 11 0 0 0 11 11 10.66 10.66 0 0 0 3-.43V49a1 1 0 0 1-1 1H5a4.92 4.92 0 0 0-3 1V5a3 3 0 0 1 3-3Zm0 50h35v5a1 1 0 0 1-1 1H5a3 3 0 0 1 0-6Z"/><path id="Shape-2" data-name="Shape" class="cls-3" d="M9 56h26a1 1 0 0 0 0-2H9a1 1 0 0 0 0 2Z"/><path id="Shape-3" data-name="Shape" class="cls-3" d="M9 43h16a1 1 0 0 0 0-2H9a1 1 0 0 0 0 2Z"/><path id="Shape-4" data-name="Shape" class="cls-3" d="M9 47h10a1 1 0 0 0 0-2H9a1 1 0 0 0 0 2Z"/><path id="Shape-5" data-name="Shape" class="cls-3" d="M22 8a3 3 0 1 0 3 3 3 3 0 0 0-3-3Zm0 4a1 1 0 1 1 1-1 1 1 0 0 1-1 1Z"/><path id="Path_3685" data-name="Path 3685" d="M39 29.442a6.934 6.934 0 0 1 7.258 7.967" style="fill:none;stroke:#fff;stroke-linecap:round"/></g></g></svg>